<svg width="48" height="48" viewBox="0 0 48 48" fill="none" xmlns="http://www.w3.org/2000/svg">
<path fill-rule="evenodd" clip-rule="evenodd" d="M46.2929 3.51154L44.4885 1.70711C43.3169 0.535537 41.4174 0.535537 40.2458 1.70711L24.7071 17.2458C24.3166 17.6364 23.6834 17.6364 23.2929 17.2458L7.75418 1.70711C6.58261 0.535539 4.68311 0.535536 3.51154 1.70711L1.70711 3.51154C0.535537 4.68311 0.535537 6.58261 1.70711 7.75418L17.2458 23.2929C17.6364 23.6834 17.6364 24.3166 17.2458 24.7071L1.70711 40.2458C0.535539 41.4174 0.535536 43.3169 1.70711 44.4885L3.51154 46.2929C4.68311 47.4645 6.58261 47.4645 7.75418 46.2929L23.2929 30.7542C23.6834 30.3637 24.3166 30.3637 24.7071 30.7542L40.2458 46.2929C41.4174 47.4645 43.3169 47.4645 44.4885 46.2929L46.2929 44.4885C47.4645 43.3169 47.4645 41.4174 46.2929 40.2458L30.7542 24.7071C30.3637 24.3166 30.3637 23.6834 30.7542 23.2929L46.2929 7.75418C47.4645 6.58261 47.4645 4.68311 46.2929 3.51154Z" fill="white"/>
</svg>
